<mxfile host="app.diagrams.net" modified="2020-11-27T09:49:42.676Z" agent="5.0 (Macintosh; Intel Mac OS X 10_15_6) AppleWebKit/537.36 (KHTML, like Gecko) Chrome/86.0.4240.183 Safari/537.36" etag="P2y_P9wA5JKgduXwOepi" version="13.10.1" type="github">
  <diagram id="C5RBs43oDa-KdzZeNtuy" name="Page-1">
    <mxGraphModel dx="2306" dy="484" grid="1" gridSize="10" guides="1" tooltips="1" connect="1" arrows="1" fold="1" page="1" pageScale="1" pageWidth="827" pageHeight="1169" math="0" shadow="0">
      <root>
        <mxCell id="WIyWlLk6GJQsqaUBKTNV-0" />
        <mxCell id="WIyWlLk6GJQsqaUBKTNV-1" parent="WIyWlLk6GJQsqaUBKTNV-0" />
        <mxCell id="WIyWlLk6GJQsqaUBKTNV-5" value="No" style="edgeStyle=orthogonalEdgeStyle;rounded=0;html=1;jettySize=auto;orthogonalLoop=1;fontSize=11;endArrow=block;endFill=0;endSize=8;strokeWidth=1;shadow=0;labelBackgroundColor=none;" parent="WIyWlLk6GJQsqaUBKTNV-1" source="WIyWlLk6GJQsqaUBKTNV-6" target="WIyWlLk6GJQsqaUBKTNV-7" edge="1">
          <mxGeometry y="10" relative="1" as="geometry">
            <mxPoint as="offset" />
          </mxGeometry>
        </mxCell>
        <mxCell id="sMwPYeh3nt6qZpOF12sR-6" value="yes" style="edgeStyle=orthogonalEdgeStyle;rounded=0;orthogonalLoop=1;jettySize=auto;html=1;exitX=0.5;exitY=1;exitDx=0;exitDy=0;" edge="1" parent="WIyWlLk6GJQsqaUBKTNV-1" source="WIyWlLk6GJQsqaUBKTNV-6" target="WIyWlLk6GJQsqaUBKTNV-10">
          <mxGeometry relative="1" as="geometry" />
        </mxCell>
        <mxCell id="WIyWlLk6GJQsqaUBKTNV-6" value="调场规则校验" style="rhombus;whiteSpace=wrap;html=1;shadow=0;fontFamily=Helvetica;fontSize=12;align=center;strokeWidth=1;spacing=6;spacingTop=-4;" parent="WIyWlLk6GJQsqaUBKTNV-1" vertex="1">
          <mxGeometry x="-1310" y="330" width="100" height="80" as="geometry" />
        </mxCell>
        <mxCell id="WIyWlLk6GJQsqaUBKTNV-7" value="结束" style="rounded=1;whiteSpace=wrap;html=1;fontSize=12;glass=0;strokeWidth=1;shadow=0;" parent="WIyWlLk6GJQsqaUBKTNV-1" vertex="1">
          <mxGeometry x="-1520" y="350" width="120" height="40" as="geometry" />
        </mxCell>
        <mxCell id="WIyWlLk6GJQsqaUBKTNV-8" value="No" style="rounded=0;html=1;jettySize=auto;orthogonalLoop=1;fontSize=11;endArrow=block;endFill=0;endSize=8;strokeWidth=1;shadow=0;labelBackgroundColor=none;edgeStyle=orthogonalEdgeStyle;" parent="WIyWlLk6GJQsqaUBKTNV-1" source="WIyWlLk6GJQsqaUBKTNV-10" target="WIyWlLk6GJQsqaUBKTNV-11" edge="1">
          <mxGeometry x="0.3333" y="20" relative="1" as="geometry">
            <mxPoint as="offset" />
          </mxGeometry>
        </mxCell>
        <mxCell id="WIyWlLk6GJQsqaUBKTNV-9" value="Yes" style="edgeStyle=orthogonalEdgeStyle;rounded=0;html=1;jettySize=auto;orthogonalLoop=1;fontSize=11;endArrow=block;endFill=0;endSize=8;strokeWidth=1;shadow=0;labelBackgroundColor=none;" parent="WIyWlLk6GJQsqaUBKTNV-1" source="WIyWlLk6GJQsqaUBKTNV-10" target="sMwPYeh3nt6qZpOF12sR-31" edge="1">
          <mxGeometry y="10" relative="1" as="geometry">
            <mxPoint as="offset" />
            <mxPoint x="-1100" y="540" as="targetPoint" />
          </mxGeometry>
        </mxCell>
        <mxCell id="WIyWlLk6GJQsqaUBKTNV-10" value="组织参数，获取临调班级" style="rhombus;whiteSpace=wrap;html=1;shadow=0;fontFamily=Helvetica;fontSize=12;align=center;strokeWidth=1;spacing=6;spacingTop=-4;" parent="WIyWlLk6GJQsqaUBKTNV-1" vertex="1">
          <mxGeometry x="-1310" y="500" width="100" height="80" as="geometry" />
        </mxCell>
        <mxCell id="WIyWlLk6GJQsqaUBKTNV-11" value="Repair Lamp" style="rounded=1;whiteSpace=wrap;html=1;fontSize=12;glass=0;strokeWidth=1;shadow=0;" parent="WIyWlLk6GJQsqaUBKTNV-1" vertex="1">
          <mxGeometry x="-1320" y="700" width="120" height="40" as="geometry" />
        </mxCell>
        <mxCell id="sMwPYeh3nt6qZpOF12sR-1" value="调场主要入参：&lt;br&gt;&lt;div&gt;stu_cou_id&amp;nbsp;&lt;/div&gt;&lt;div&gt;stu_id&lt;/div&gt;&lt;div&gt;plan_id&lt;/div&gt;&lt;div&gt;new_plan_id&lt;/div&gt;" style="rounded=1;whiteSpace=wrap;html=1;fontSize=12;glass=0;strokeWidth=1;shadow=0;" vertex="1" parent="WIyWlLk6GJQsqaUBKTNV-1">
          <mxGeometry x="-1335" y="150" width="150" height="90" as="geometry" />
        </mxCell>
        <mxCell id="sMwPYeh3nt6qZpOF12sR-4" style="edgeStyle=orthogonalEdgeStyle;rounded=0;orthogonalLoop=1;jettySize=auto;html=1;" edge="1" parent="WIyWlLk6GJQsqaUBKTNV-1" source="sMwPYeh3nt6qZpOF12sR-1" target="WIyWlLk6GJQsqaUBKTNV-6">
          <mxGeometry relative="1" as="geometry">
            <mxPoint x="-1260" y="240" as="sourcePoint" />
            <mxPoint x="-1260" y="320" as="targetPoint" />
          </mxGeometry>
        </mxCell>
        <mxCell id="sMwPYeh3nt6qZpOF12sR-8" value="yes" style="edgeStyle=orthogonalEdgeStyle;rounded=0;orthogonalLoop=1;jettySize=auto;html=1;exitX=0.5;exitY=1;exitDx=0;exitDy=0;" edge="1" parent="WIyWlLk6GJQsqaUBKTNV-1" source="sMwPYeh3nt6qZpOF12sR-9" target="sMwPYeh3nt6qZpOF12sR-26">
          <mxGeometry relative="1" as="geometry">
            <mxPoint x="-720" y="510" as="targetPoint" />
            <Array as="points" />
          </mxGeometry>
        </mxCell>
        <mxCell id="sMwPYeh3nt6qZpOF12sR-29" style="edgeStyle=orthogonalEdgeStyle;rounded=0;orthogonalLoop=1;jettySize=auto;html=1;exitX=1;exitY=0.5;exitDx=0;exitDy=0;" edge="1" parent="WIyWlLk6GJQsqaUBKTNV-1" source="sMwPYeh3nt6qZpOF12sR-9" target="sMwPYeh3nt6qZpOF12sR-27">
          <mxGeometry relative="1" as="geometry" />
        </mxCell>
        <mxCell id="sMwPYeh3nt6qZpOF12sR-30" value="no" style="edgeLabel;html=1;align=center;verticalAlign=middle;resizable=0;points=[];" vertex="1" connectable="0" parent="sMwPYeh3nt6qZpOF12sR-29">
          <mxGeometry x="0.0281" y="-2" relative="1" as="geometry">
            <mxPoint as="offset" />
          </mxGeometry>
        </mxCell>
        <mxCell id="sMwPYeh3nt6qZpOF12sR-9" value="&lt;div&gt;通过班级Ids信息获取班级是否可调&lt;/div&gt;&lt;div&gt;getAvaChangePlanClassInfo&lt;/div&gt;" style="rhombus;whiteSpace=wrap;html=1;shadow=0;fontFamily=Helvetica;fontSize=12;align=center;strokeWidth=1;spacing=6;spacingTop=-4;" vertex="1" parent="WIyWlLk6GJQsqaUBKTNV-1">
          <mxGeometry x="-832.5" y="250" width="225" height="120" as="geometry" />
        </mxCell>
        <mxCell id="sMwPYeh3nt6qZpOF12sR-18" value="&lt;font style=&quot;font-size: 18px&quot;&gt;&lt;b&gt;调场保存逻辑&lt;/b&gt;&lt;/font&gt;" style="text;html=1;align=center;verticalAlign=middle;resizable=0;points=[];autosize=1;" vertex="1" parent="WIyWlLk6GJQsqaUBKTNV-1">
          <mxGeometry x="-1325" y="50" width="120" height="20" as="geometry" />
        </mxCell>
        <mxCell id="sMwPYeh3nt6qZpOF12sR-19" value="&lt;font style=&quot;font-size: 18px&quot;&gt;临调班级逻辑（&lt;span style=&quot;font-size: 12px&quot;&gt;根据场次Id，获取临调班，验证名额&lt;/span&gt;）&lt;/font&gt;" style="text;html=1;align=center;verticalAlign=middle;resizable=0;points=[];autosize=1;" vertex="1" parent="WIyWlLk6GJQsqaUBKTNV-1">
          <mxGeometry x="-895" y="30" width="350" height="20" as="geometry" />
        </mxCell>
        <mxCell id="sMwPYeh3nt6qZpOF12sR-24" style="edgeStyle=orthogonalEdgeStyle;rounded=0;orthogonalLoop=1;jettySize=auto;html=1;exitX=0.5;exitY=1;exitDx=0;exitDy=0;entryX=0.5;entryY=0;entryDx=0;entryDy=0;" edge="1" parent="WIyWlLk6GJQsqaUBKTNV-1" source="sMwPYeh3nt6qZpOF12sR-20" target="sMwPYeh3nt6qZpOF12sR-22">
          <mxGeometry relative="1" as="geometry" />
        </mxCell>
        <mxCell id="sMwPYeh3nt6qZpOF12sR-20" value="&lt;span&gt;根据场次Id，获取课程Ids&lt;/span&gt;" style="rounded=1;whiteSpace=wrap;html=1;fontSize=12;glass=0;strokeWidth=1;shadow=0;" vertex="1" parent="WIyWlLk6GJQsqaUBKTNV-1">
          <mxGeometry x="-827.5" y="80" width="215" height="50" as="geometry" />
        </mxCell>
        <mxCell id="sMwPYeh3nt6qZpOF12sR-25" style="edgeStyle=orthogonalEdgeStyle;rounded=0;orthogonalLoop=1;jettySize=auto;html=1;exitX=0.5;exitY=1;exitDx=0;exitDy=0;entryX=0.5;entryY=0;entryDx=0;entryDy=0;" edge="1" parent="WIyWlLk6GJQsqaUBKTNV-1" source="sMwPYeh3nt6qZpOF12sR-22" target="sMwPYeh3nt6qZpOF12sR-9">
          <mxGeometry relative="1" as="geometry">
            <mxPoint x="-720" y="230" as="targetPoint" />
          </mxGeometry>
        </mxCell>
        <mxCell id="sMwPYeh3nt6qZpOF12sR-22" value="&lt;span&gt;根据课程Ids获取班级Ids（查DB）&lt;/span&gt;" style="rounded=1;whiteSpace=wrap;html=1;fontSize=12;glass=0;strokeWidth=1;shadow=0;" vertex="1" parent="WIyWlLk6GJQsqaUBKTNV-1">
          <mxGeometry x="-827.5" y="160" width="215" height="50" as="geometry" />
        </mxCell>
        <mxCell id="sMwPYeh3nt6qZpOF12sR-26" value="返回班级信息" style="rounded=1;whiteSpace=wrap;html=1;fontSize=12;glass=0;strokeWidth=1;shadow=0;" vertex="1" parent="WIyWlLk6GJQsqaUBKTNV-1">
          <mxGeometry x="-780" y="410" width="120" height="30" as="geometry" />
        </mxCell>
        <mxCell id="sMwPYeh3nt6qZpOF12sR-27" value="推班失败" style="rounded=1;whiteSpace=wrap;html=1;fontSize=12;glass=0;strokeWidth=1;shadow=0;" vertex="1" parent="WIyWlLk6GJQsqaUBKTNV-1">
          <mxGeometry x="-580" y="400" width="120" height="40" as="geometry" />
        </mxCell>
        <mxCell id="sMwPYeh3nt6qZpOF12sR-35" value="yes" style="edgeStyle=orthogonalEdgeStyle;rounded=0;orthogonalLoop=1;jettySize=auto;html=1;exitX=0.5;exitY=1;exitDx=0;exitDy=0;" edge="1" parent="WIyWlLk6GJQsqaUBKTNV-1" source="sMwPYeh3nt6qZpOF12sR-31" target="sMwPYeh3nt6qZpOF12sR-36">
          <mxGeometry relative="1" as="geometry">
            <mxPoint x="-1040.1666666666665" y="640" as="targetPoint" />
          </mxGeometry>
        </mxCell>
        <mxCell id="sMwPYeh3nt6qZpOF12sR-38" style="edgeStyle=orthogonalEdgeStyle;rounded=0;orthogonalLoop=1;jettySize=auto;html=1;exitX=1;exitY=0.5;exitDx=0;exitDy=0;" edge="1" parent="WIyWlLk6GJQsqaUBKTNV-1" source="sMwPYeh3nt6qZpOF12sR-31" target="sMwPYeh3nt6qZpOF12sR-37">
          <mxGeometry relative="1" as="geometry" />
        </mxCell>
        <mxCell id="sMwPYeh3nt6qZpOF12sR-39" value="no" style="edgeLabel;html=1;align=center;verticalAlign=middle;resizable=0;points=[];" vertex="1" connectable="0" parent="sMwPYeh3nt6qZpOF12sR-38">
          <mxGeometry x="-0.5163" y="3" relative="1" as="geometry">
            <mxPoint as="offset" />
          </mxGeometry>
        </mxCell>
        <mxCell id="sMwPYeh3nt6qZpOF12sR-31" value="是否从原场次调回了原场次" style="rhombus;whiteSpace=wrap;html=1;shadow=0;fontFamily=Helvetica;fontSize=12;align=center;strokeWidth=1;spacing=6;spacingTop=-4;" vertex="1" parent="WIyWlLk6GJQsqaUBKTNV-1">
          <mxGeometry x="-1110" y="500" width="100" height="80" as="geometry" />
        </mxCell>
        <mxCell id="sMwPYeh3nt6qZpOF12sR-32" value="" style="endArrow=classic;startArrow=classic;html=1;entryX=0.111;entryY=1.133;entryDx=0;entryDy=0;entryPerimeter=0;" edge="1" parent="WIyWlLk6GJQsqaUBKTNV-1" target="sMwPYeh3nt6qZpOF12sR-19">
          <mxGeometry width="50" height="50" relative="1" as="geometry">
            <mxPoint x="-1210" y="540" as="sourcePoint" />
            <mxPoint x="-850" y="200" as="targetPoint" />
          </mxGeometry>
        </mxCell>
        <mxCell id="sMwPYeh3nt6qZpOF12sR-36" value="修改组织参数tmp_class_id=0" style="rounded=1;whiteSpace=wrap;html=1;fontSize=12;glass=0;strokeWidth=1;shadow=0;" vertex="1" parent="WIyWlLk6GJQsqaUBKTNV-1">
          <mxGeometry x="-1120" y="640" width="120" height="40" as="geometry" />
        </mxCell>
        <mxCell id="sMwPYeh3nt6qZpOF12sR-37" value="修改组织参数tmp_class_id=推荐班id" style="rounded=1;whiteSpace=wrap;html=1;fontSize=12;glass=0;strokeWidth=1;shadow=0;" vertex="1" parent="WIyWlLk6GJQsqaUBKTNV-1">
          <mxGeometry x="-959" y="515" width="132.5" height="50" as="geometry" />
        </mxCell>
      </root>
    </mxGraphModel>
  </diagram>
</mxfile>
